# MagicaVoxel @ Ephtracy

# group
o 

# material
mtllib snowFloor.mtl
usemtl palette

# normals
vn -1 0 0
vn 1 0 0
vn 0 0 1
vn 0 0 -1
vn 0 -1 0
vn 0 1 0

# texcoords
vt 0.958984 0.5
vt 0.974609 0.5
vt 0.978516 0.5

# verts
v -2 0 2
v -2 0 -2
v -2 4 2
v -2 4 -2
v -1.6 4 1.1
v -1.6 4 0.9
v -1.6 4.1 1.1
v -1.6 4.1 0.9
v -1.6 4.2 1.1
v -1.6 4.2 0.9
v 2.38419e-007 4 -1.3
v 2.38419e-007 4 -1.7
v 2.38419e-007 4.3 -1.5
v 2.38419e-007 4.3 -1.6
v 2.38419e-007 4.4 -1.3
v 2.38419e-007 4.4 -1.5
v 2.38419e-007 4.4 -1.6
v 2.38419e-007 4.4 -1.7
v 2.38419e-007 4.5 -1.3
v 2.38419e-007 4.5 -1.7
v 0.9 4.5 1.3
v 0.9 4.5 1.2
v 0.9 4.6 1.3
v 0.9 4.6 1.2
v 0.9 4.8 1.3
v 0.9 4.8 1.2
v 0.9 4.9 1.3
v 0.9 4.9 1.2
v 1 4.4 1.3
v 1 4.4 1.2
v 1 4.5 1.3
v 1 4.5 1.2
v 1 4.7 1.3
v 1 4.7 1.2
v 1 4.8 1.3
v 1 4.8 1.2
v 1.1 4.3 1.3
v 1.1 4.3 1.2
v 1.1 4.4 1.3
v 1.1 4.4 1.2
v 1.1 4.6 1.3
v 1.1 4.6 1.2
v 1.1 4.7 1.3
v 1.1 4.7 1.2
v 1.2 4 1.3
v 1.2 4 1.2
v 1.2 4.3 1.3
v 1.2 4.3 1.2
v 1.2 4.4 1.3
v 1.2 4.4 1.2
v 1.2 4.6 1.3
v 1.2 4.6 1.2
v 1.2 4.7 1.3
v 1.2 4.7 1.2
v 1.2 4.8 1.3
v 1.2 4.8 1.2
v 1.2 5 1.3
v 1.2 5 1.2
v 1.5 4.4 1.3
v 1.5 4.4 1.2
v 1.5 4.5 1.3
v 1.5 4.5 1.2
v 1.6 4.5 1.3
v 1.6 4.5 1.2
v 1.6 4.6 1.3
v 1.6 4.6 1.2
v 1.6 4.7 1.3
v 1.6 4.7 1.2
v -1.4 4 1.1
v -1.4 4 0.9
v -1.4 4.1 1
v -1.4 4.1 0.9
v -1.4 4.2 1.1
v -1.4 4.2 1
v -1.4 4.2 0.9
v 0.5 4 -1.3
v 0.5 4 -1.7
v 0.5 4.2 -1.4
v 0.5 4.2 -1.5
v 0.5 4.3 -1.5
v 0.5 4.3 -1.6
v 0.5 4.4 -1.3
v 0.5 4.4 -1.4
v 0.5 4.4 -1.6
v 0.5 4.4 -1.7
v 0.5 4.5 -1.3
v 0.5 4.5 -1.7
v 1 4.5 1.3
v 1 4.5 1.2
v 1 4.6 1.3
v 1 4.6 1.2
v 1 4.8 1.3
v 1 4.8 1.2
v 1 4.9 1.3
v 1 4.9 1.2
v 1.1 4.4 1.3
v 1.1 4.4 1.2
v 1.1 4.5 1.3
v 1.1 4.5 1.2
v 1.1 4.7 1.3
v 1.1 4.7 1.2
v 1.1 4.8 1.3
v 1.1 4.8 1.2
v 1.3 4 1.3
v 1.3 4 1.2
v 1.3 4.3 1.3
v 1.3 4.3 1.2
v 1.3 4.4 1.3
v 1.3 4.4 1.2
v 1.3 4.8 1.3
v 1.3 4.8 1.2
v 1.3 4.9 1.3
v 1.3 4.9 1.2
v 1.3 5 1.3
v 1.3 5 1.2
v 1.4 4.8 1.3
v 1.4 4.8 1.2
v 1.4 4.9 1.3
v 1.4 4.9 1.2
v 1.6 4.3 1.3
v 1.6 4.3 1.2
v 1.6 4.5 1.3
v 1.6 4.5 1.2
v 1.7 4.5 1.3
v 1.7 4.5 1.2
v 1.7 4.6 1.3
v 1.7 4.6 1.2
v 1.7 4.7 1.3
v 1.7 4.7 1.2
v 2 0 2
v 2 0 -2
v 2 4 2
v 2 4 -2
v -2 0 2
v -2 4 2
v 2 0 2
v 2 4 2
v 0.9 4.5 1.3
v 0.9 4.6 1.3
v 0.9 4.8 1.3
v 0.9 4.9 1.3
v 1 4.4 1.3
v 1 4.5 1.3
v 1 4.6 1.3
v 1 4.7 1.3
v 1 4.8 1.3
v 1 4.9 1.3
v 1.1 4.3 1.3
v 1.1 4.4 1.3
v 1.1 4.5 1.3
v 1.1 4.6 1.3
v 1.1 4.7 1.3
v 1.1 4.8 1.3
v 1.2 4 1.3
v 1.2 4.3 1.3
v 1.2 4.4 1.3
v 1.2 4.6 1.3
v 1.2 4.7 1.3
v 1.2 4.8 1.3
v 1.2 5 1.3
v 1.3 4 1.3
v 1.3 4.3 1.3
v 1.3 4.4 1.3
v 1.3 4.8 1.3
v 1.3 4.9 1.3
v 1.3 5 1.3
v 1.4 4.8 1.3
v 1.4 4.9 1.3
v 1.5 4.4 1.3
v 1.5 4.5 1.3
v 1.6 4.3 1.3
v 1.6 4.5 1.3
v 1.6 4.6 1.3
v 1.6 4.7 1.3
v 1.7 4.5 1.3
v 1.7 4.6 1.3
v 1.7 4.7 1.3
v -1.6 4 1.1
v -1.6 4.1 1.1
v -1.6 4.2 1.1
v -1.5 4.1 1.1
v -1.5 4.2 1.1
v -1.4 4 1.1
v -1.4 4.2 1.1
v 2.38419e-007 4 -1.3
v 2.38419e-007 4.4 -1.3
v 2.38419e-007 4.5 -1.3
v 0.1 4.2 -1.3
v 0.1 4.4 -1.3
v 0.2 4.2 -1.3
v 0.2 4.3 -1.3
v 0.3 4.3 -1.3
v 0.3 4.4 -1.3
v 0.5 4 -1.3
v 0.5 4.4 -1.3
v 0.5 4.5 -1.3
v 0.9 4.5 1.2
v 0.9 4.6 1.2
v 0.9 4.8 1.2
v 0.9 4.9 1.2
v 1 4.4 1.2
v 1 4.5 1.2
v 1 4.6 1.2
v 1 4.7 1.2
v 1 4.8 1.2
v 1 4.9 1.2
v 1.1 4.3 1.2
v 1.1 4.4 1.2
v 1.1 4.5 1.2
v 1.1 4.6 1.2
v 1.1 4.7 1.2
v 1.1 4.8 1.2
v 1.2 4 1.2
v 1.2 4.3 1.2
v 1.2 4.4 1.2
v 1.2 4.6 1.2
v 1.2 4.7 1.2
v 1.2 4.8 1.2
v 1.2 5 1.2
v 1.3 4 1.2
v 1.3 4.3 1.2
v 1.3 4.4 1.2
v 1.3 4.8 1.2
v 1.3 4.9 1.2
v 1.3 5 1.2
v 1.4 4.8 1.2
v 1.4 4.9 1.2
v 1.5 4.4 1.2
v 1.5 4.5 1.2
v 1.6 4.3 1.2
v 1.6 4.5 1.2
v 1.6 4.6 1.2
v 1.6 4.7 1.2
v 1.7 4.5 1.2
v 1.7 4.6 1.2
v 1.7 4.7 1.2
v -1.6 4 0.9
v -1.6 4.1 0.9
v -1.6 4.2 0.9
v -1.4 4 0.9
v -1.4 4.1 0.9
v -1.4 4.2 0.9
v 2.38419e-007 4 -1.7
v 2.38419e-007 4.4 -1.7
v 2.38419e-007 4.5 -1.7
v 0.2 4.2 -1.7
v 0.2 4.4 -1.7
v 0.3 4.2 -1.7
v 0.3 4.3 -1.7
v 0.4 4.3 -1.7
v 0.4 4.4 -1.7
v 0.5 4 -1.7
v 0.5 4.4 -1.7
v 0.5 4.5 -1.7
v -2 0 -2
v -2 4 -2
v 2 0 -2
v 2 4 -2
v -2 0 2
v 2 0 2
v -2 0 -2
v 2 0 -2
v 1.1 4.3 1.3
v 1.2 4.3 1.3
v 1.3 4.3 1.3
v 1.6 4.3 1.3
v 1.1 4.3 1.2
v 1.2 4.3 1.2
v 1.3 4.3 1.2
v 1.6 4.3 1.2
v 1 4.4 1.3
v 1.1 4.4 1.3
v 1 4.4 1.2
v 1.1 4.4 1.2
v 0.9 4.5 1.3
v 1 4.5 1.3
v 1.6 4.5 1.3
v 1.7 4.5 1.3
v 0.9 4.5 1.2
v 1 4.5 1.2
v 1.6 4.5 1.2
v 1.7 4.5 1.2
v 1.1 4.6 1.3
v 1.2 4.6 1.3
v 1.1 4.6 1.2
v 1.2 4.6 1.2
v 1 4.7 1.3
v 1.1 4.7 1.3
v 1 4.7 1.2
v 1.1 4.7 1.2
v 0.9 4.8 1.3
v 1 4.8 1.3
v 1.3 4.8 1.3
v 1.4 4.8 1.3
v 0.9 4.8 1.2
v 1 4.8 1.2
v 1.3 4.8 1.2
v 1.4 4.8 1.2
v -2 4 2
v 2 4 2
v 1.2 4 1.3
v 1.3 4 1.3
v 1.2 4 1.2
v 1.3 4 1.2
v -1.6 4 1.1
v -1.4 4 1.1
v -1.6 4 0.9
v -1.4 4 0.9
v 2.38419e-007 4 -1.3
v 0.5 4 -1.3
v 2.38419e-007 4 -1.7
v 0.5 4 -1.7
v -2 4 -2
v 2 4 -2
v -1.6 4.2 1.1
v -1.5 4.2 1.1
v -1.4 4.2 1.1
v -1.5 4.2 1
v -1.4 4.2 1
v -1.6 4.2 0.9
v -1.4 4.2 0.9
v 1.1 4.4 1.3
v 1.2 4.4 1.3
v 1.3 4.4 1.3
v 1.5 4.4 1.3
v 1.1 4.4 1.2
v 1.2 4.4 1.2
v 1.3 4.4 1.2
v 1.5 4.4 1.2
v 1 4.5 1.3
v 1.1 4.5 1.3
v 1.5 4.5 1.3
v 1.6 4.5 1.3
v 1 4.5 1.2
v 1.1 4.5 1.2
v 1.5 4.5 1.2
v 1.6 4.5 1.2
v 2.38419e-007 4.5 -1.3
v 0.5 4.5 -1.3
v 2.38419e-007 4.5 -1.7
v 0.5 4.5 -1.7
v 0.9 4.6 1.3
v 1 4.6 1.3
v 0.9 4.6 1.2
v 1 4.6 1.2
v 1.1 4.7 1.3
v 1.2 4.7 1.3
v 1.6 4.7 1.3
v 1.7 4.7 1.3
v 1.1 4.7 1.2
v 1.2 4.7 1.2
v 1.6 4.7 1.2
v 1.7 4.7 1.2
v 1 4.8 1.3
v 1.1 4.8 1.3
v 1 4.8 1.2
v 1.1 4.8 1.2
v 0.9 4.9 1.3
v 1 4.9 1.3
v 1.3 4.9 1.3
v 1.4 4.9 1.3
v 0.9 4.9 1.2
v 1 4.9 1.2
v 1.3 4.9 1.2
v 1.4 4.9 1.2
v 1.2 5 1.3
v 1.3 5 1.3
v 1.2 5 1.2
v 1.3 5 1.2

# faces
f 3/1/1 2/1/1 1/1/1
f 4/1/1 2/1/1 3/1/1
f 7/3/1 6/3/1 5/3/1
f 8/3/1 6/3/1 7/3/1
f 9/1/1 8/1/1 7/1/1
f 10/1/1 8/1/1 9/1/1
f 13/3/1 12/3/1 11/3/1
f 14/3/1 12/3/1 13/3/1
f 15/3/1 13/3/1 11/3/1
f 16/1/1 14/1/1 13/1/1
f 16/3/1 13/3/1 15/3/1
f 17/3/1 12/3/1 14/3/1
f 17/1/1 14/1/1 16/1/1
f 18/3/1 12/3/1 17/3/1
f 19/1/1 16/1/1 15/1/1
f 19/1/1 17/1/1 16/1/1
f 19/1/1 18/1/1 17/1/1
f 20/1/1 18/1/1 19/1/1
f 23/1/1 22/1/1 21/1/1
f 24/1/1 22/1/1 23/1/1
f 27/1/1 26/1/1 25/1/1
f 28/1/1 26/1/1 27/1/1
f 31/1/1 30/1/1 29/1/1
f 32/1/1 30/1/1 31/1/1
f 35/1/1 34/1/1 33/1/1
f 36/1/1 34/1/1 35/1/1
f 39/1/1 38/1/1 37/1/1
f 40/1/1 38/1/1 39/1/1
f 43/1/1 42/1/1 41/1/1
f 44/1/1 42/1/1 43/1/1
f 47/2/1 46/2/1 45/2/1
f 48/2/1 46/2/1 47/2/1
f 51/2/1 50/2/1 49/2/1
f 52/2/1 50/2/1 51/2/1
f 55/2/1 54/2/1 53/2/1
f 56/2/1 54/2/1 55/2/1
f 57/1/1 56/1/1 55/1/1
f 58/1/1 56/1/1 57/1/1
f 61/2/1 60/2/1 59/2/1
f 62/2/1 60/2/1 61/2/1
f 65/2/1 64/2/1 63/2/1
f 66/2/1 64/2/1 65/2/1
f 67/1/1 66/1/1 65/1/1
f 68/1/1 66/1/1 67/1/1
f 69/3/2 70/3/2 71/3/2
f 71/3/2 70/3/2 72/3/2
f 69/3/2 71/3/2 73/3/2
f 71/1/2 72/1/2 74/1/2
f 73/3/2 71/3/2 74/3/2
f 74/1/2 72/1/2 75/1/2
f 76/3/2 77/3/2 78/3/2
f 78/3/2 77/3/2 79/3/2
f 78/1/2 79/1/2 80/1/2
f 79/3/2 77/3/2 80/3/2
f 80/3/2 77/3/2 81/3/2
f 76/3/2 78/3/2 82/3/2
f 78/1/2 80/1/2 83/1/2
f 82/3/2 78/3/2 83/3/2
f 80/1/2 81/1/2 83/1/2
f 81/3/2 77/3/2 84/3/2
f 83/1/2 81/1/2 84/1/2
f 84/3/2 77/3/2 85/3/2
f 82/1/2 83/1/2 86/1/2
f 83/1/2 84/1/2 86/1/2
f 84/1/2 85/1/2 86/1/2
f 86/1/2 85/1/2 87/1/2
f 88/1/2 89/1/2 90/1/2
f 90/1/2 89/1/2 91/1/2
f 92/1/2 93/1/2 94/1/2
f 94/1/2 93/1/2 95/1/2
f 96/1/2 97/1/2 98/1/2
f 98/1/2 97/1/2 99/1/2
f 100/1/2 101/1/2 102/1/2
f 102/1/2 101/1/2 103/1/2
f 104/2/2 105/2/2 106/2/2
f 106/2/2 105/2/2 107/2/2
f 108/2/2 109/2/2 110/2/2
f 110/2/2 109/2/2 111/2/2
f 112/1/2 113/1/2 114/1/2
f 114/1/2 113/1/2 115/1/2
f 116/1/2 117/1/2 118/1/2
f 118/1/2 117/1/2 119/1/2
f 120/2/2 121/2/2 122/2/2
f 122/2/2 121/2/2 123/2/2
f 124/2/2 125/2/2 126/2/2
f 126/2/2 125/2/2 127/2/2
f 126/1/2 127/1/2 128/1/2
f 128/1/2 127/1/2 129/1/2
f 130/1/2 131/1/2 132/1/2
f 132/1/2 131/1/2 133/1/2
f 136/1/3 135/1/3 134/1/3
f 137/1/3 135/1/3 136/1/3
f 143/1/3 139/1/3 138/1/3
f 144/1/3 139/1/3 143/1/3
f 146/1/3 141/1/3 140/1/3
f 147/1/3 141/1/3 146/1/3
f 149/1/3 143/1/3 142/1/3
f 150/1/3 143/1/3 149/1/3
f 152/1/3 146/1/3 145/1/3
f 153/1/3 146/1/3 152/1/3
f 155/1/3 149/1/3 148/1/3
f 156/1/3 149/1/3 155/1/3
f 157/1/3 152/1/3 151/1/3
f 158/1/3 152/1/3 157/1/3
f 161/2/3 159/2/3 158/2/3
f 161/2/3 158/2/3 157/2/3
f 161/2/3 157/2/3 156/2/3
f 161/2/3 156/2/3 155/2/3
f 161/2/3 155/2/3 154/2/3
f 162/2/3 159/2/3 161/2/3
f 163/2/3 159/2/3 162/2/3
f 164/1/3 160/1/3 159/1/3
f 164/2/3 159/2/3 163/2/3
f 165/1/3 160/1/3 164/1/3
f 166/1/3 160/1/3 165/1/3
f 167/1/3 165/1/3 164/1/3
f 168/1/3 165/1/3 167/1/3
f 169/2/3 163/2/3 162/2/3
f 171/2/3 169/2/3 162/2/3
f 171/2/3 170/2/3 169/2/3
f 172/2/3 170/2/3 171/2/3
f 175/2/3 173/2/3 172/2/3
f 176/1/3 174/1/3 173/1/3
f 176/2/3 173/2/3 175/2/3
f 177/1/3 174/1/3 176/1/3
f 181/3/3 179/3/3 178/3/3
f 181/1/3 180/1/3 179/1/3
f 182/1/3 180/1/3 181/1/3
f 183/3/3 181/3/3 178/3/3
f 183/3/3 182/3/3 181/3/3
f 184/3/3 182/3/3 183/3/3
f 188/3/3 186/3/3 185/3/3
f 189/1/3 187/1/3 186/1/3
f 189/3/3 186/3/3 188/3/3
f 190/3/3 188/3/3 185/3/3
f 190/1/3 189/1/3 188/1/3
f 191/1/3 189/1/3 190/1/3
f 192/3/3 191/3/3 190/3/3
f 192/1/3 189/1/3 191/1/3
f 193/1/3 187/1/3 189/1/3
f 193/1/3 189/1/3 192/1/3
f 194/3/3 192/3/3 190/3/3
f 194/3/3 190/3/3 185/3/3
f 194/3/3 193/3/3 192/3/3
f 195/1/3 187/1/3 193/1/3
f 195/3/3 193/3/3 194/3/3
f 196/1/3 187/1/3 195/1/3
f 197/1/4 198/1/4 202/1/4
f 202/1/4 198/1/4 203/1/4
f 199/1/4 200/1/4 205/1/4
f 205/1/4 200/1/4 206/1/4
f 201/1/4 202/1/4 208/1/4
f 208/1/4 202/1/4 209/1/4
f 204/1/4 205/1/4 211/1/4
f 211/1/4 205/1/4 212/1/4
f 207/1/4 208/1/4 214/1/4
f 214/1/4 208/1/4 215/1/4
f 210/1/4 211/1/4 216/1/4
f 216/1/4 211/1/4 217/1/4
f 217/2/4 218/2/4 220/2/4
f 216/2/4 217/2/4 220/2/4
f 215/2/4 216/2/4 220/2/4
f 214/2/4 215/2/4 220/2/4
f 213/2/4 214/2/4 220/2/4
f 220/2/4 218/2/4 221/2/4
f 221/2/4 218/2/4 222/2/4
f 218/1/4 219/1/4 223/1/4
f 222/2/4 218/2/4 223/2/4
f 223/1/4 219/1/4 224/1/4
f 224/1/4 219/1/4 225/1/4
f 223/1/4 224/1/4 226/1/4
f 226/1/4 224/1/4 227/1/4
f 221/2/4 222/2/4 228/2/4
f 221/2/4 228/2/4 230/2/4
f 228/2/4 229/2/4 230/2/4
f 230/2/4 229/2/4 231/2/4
f 231/2/4 232/2/4 234/2/4
f 232/1/4 233/1/4 235/1/4
f 234/2/4 232/2/4 235/2/4
f 235/1/4 233/1/4 236/1/4
f 237/3/4 238/3/4 240/3/4
f 238/1/4 239/1/4 241/1/4
f 240/3/4 238/3/4 241/3/4
f 241/1/4 239/1/4 242/1/4
f 243/3/4 244/3/4 246/3/4
f 244/1/4 245/1/4 247/1/4
f 246/3/4 244/3/4 247/3/4
f 243/3/4 246/3/4 248/3/4
f 246/1/4 247/1/4 248/1/4
f 248/1/4 247/1/4 249/1/4
f 248/3/4 249/3/4 250/3/4
f 249/1/4 247/1/4 250/1/4
f 247/1/4 245/1/4 251/1/4
f 250/1/4 247/1/4 251/1/4
f 248/3/4 250/3/4 252/3/4
f 243/3/4 248/3/4 252/3/4
f 250/3/4 251/3/4 252/3/4
f 251/1/4 245/1/4 253/1/4
f 252/3/4 251/3/4 253/3/4
f 253/1/4 245/1/4 254/1/4
f 255/1/4 256/1/4 257/1/4
f 257/1/4 256/1/4 258/1/4
f 261/1/5 260/1/5 259/1/5
f 262/1/5 260/1/5 261/1/5
f 267/1/5 264/1/5 263/1/5
f 268/1/5 264/1/5 267/1/5
f 269/2/5 266/2/5 265/2/5
f 270/2/5 266/2/5 269/2/5
f 273/1/5 272/1/5 271/1/5
f 274/1/5 272/1/5 273/1/5
f 279/1/5 276/1/5 275/1/5
f 280/1/5 276/1/5 279/1/5
f 281/2/5 278/2/5 277/2/5
f 282/2/5 278/2/5 281/2/5
f 285/1/5 284/1/5 283/1/5
f 286/1/5 284/1/5 285/1/5
f 289/1/5 288/1/5 287/1/5
f 290/1/5 288/1/5 289/1/5
f 295/1/5 292/1/5 291/1/5
f 296/1/5 292/1/5 295/1/5
f 297/1/5 294/1/5 293/1/5
f 298/1/5 294/1/5 297/1/5
f 299/1/6 300/1/6 301/1/6
f 301/1/6 300/1/6 302/1/6
f 299/1/6 301/1/6 303/1/6
f 302/1/6 300/1/6 304/1/6
f 299/1/6 303/1/6 305/1/6
f 303/1/6 304/1/6 305/1/6
f 305/1/6 304/1/6 306/1/6
f 299/1/6 305/1/6 307/1/6
f 306/1/6 304/1/6 308/1/6
f 308/1/6 304/1/6 309/1/6
f 307/1/6 308/1/6 309/1/6
f 309/1/6 304/1/6 310/1/6
f 307/1/6 309/1/6 311/1/6
f 310/1/6 304/1/6 312/1/6
f 299/1/6 307/1/6 313/1/6
f 311/1/6 312/1/6 313/1/6
f 307/1/6 311/1/6 313/1/6
f 304/1/6 300/1/6 314/1/6
f 313/1/6 312/1/6 314/1/6
f 312/1/6 304/1/6 314/1/6
f 315/1/6 316/1/6 318/1/6
f 316/3/6 317/3/6 318/3/6
f 318/3/6 317/3/6 319/3/6
f 315/1/6 318/1/6 320/1/6
f 318/1/6 319/1/6 320/1/6
f 320/1/6 319/1/6 321/1/6
f 322/1/6 323/1/6 326/1/6
f 326/1/6 323/1/6 327/1/6
f 324/2/6 325/2/6 328/2/6
f 328/2/6 325/2/6 329/2/6
f 330/1/6 331/1/6 334/1/6
f 334/1/6 331/1/6 335/1/6
f 332/2/6 333/2/6 336/2/6
f 336/2/6 333/2/6 337/2/6
f 338/1/6 339/1/6 340/1/6
f 340/1/6 339/1/6 341/1/6
f 342/1/6 343/1/6 344/1/6
f 344/1/6 343/1/6 345/1/6
f 346/1/6 347/1/6 350/1/6
f 350/1/6 347/1/6 351/1/6
f 348/1/6 349/1/6 352/1/6
f 352/1/6 349/1/6 353/1/6
f 354/1/6 355/1/6 356/1/6
f 356/1/6 355/1/6 357/1/6
f 358/1/6 359/1/6 362/1/6
f 362/1/6 359/1/6 363/1/6
f 360/1/6 361/1/6 364/1/6
f 364/1/6 361/1/6 365/1/6
f 366/1/6 367/1/6 368/1/6
f 368/1/6 367/1/6 369/1/6
