# MagicaVoxel @ Ephtracy

# group
o 

# material
mtllib snowFloor.mtl
usemtl palette

# normals
vn -1 0 0
vn 1 0 0
vn 0 0 1
vn 0 0 -1
vn 0 -1 0
vn 0 1 0

# texcoords
vt 0.958984 0.5
vt 0.974609 0.5
vt 0.978516 0.5

# verts
v -2 0 2
v -2 0 -2
v -2 4 2
v -2 4 -2
v -1.6 4 1.1
v -1.6 4 0.9
v -1.6 4.1 1.1
v -1.6 4.1 0.9
v -1.6 4.2 1.1
v -1.6 4.2 0.9
v -1.1 4 -0.3
v -1.1 4 -0.4
v -1.1 4 -0.5
v -1.1 4.1 -0.4
v -1.1 4.1 -0.5
v -1.1 4.2 -0.3
v -1.1 4.2 -0.5
v 2.38419e-007 4 -1.3
v 2.38419e-007 4 -1.7
v 2.38419e-007 4.3 -1.5
v 2.38419e-007 4.3 -1.6
v 2.38419e-007 4.4 -1.3
v 2.38419e-007 4.4 -1.5
v 2.38419e-007 4.4 -1.6
v 2.38419e-007 4.4 -1.7
v 2.38419e-007 4.5 -1.3
v 2.38419e-007 4.5 -1.7
v 0.2 4 1.6
v 0.2 4 1.5
v 0.2 4 1.4
v 0.2 4.1 1.6
v 0.2 4.1 1.5
v 0.2 4.1 1.4
v 0.9 4.5 1.3
v 0.9 4.5 1.2
v 0.9 4.6 1.3
v 0.9 4.6 1.2
v 0.9 4.8 1.3
v 0.9 4.8 1.2
v 0.9 4.9 1.3
v 0.9 4.9 1.2
v 1 4.4 1.3
v 1 4.4 1.2
v 1 4.5 1.3
v 1 4.5 1.2
v 1 4.7 1.3
v 1 4.7 1.2
v 1 4.8 1.3
v 1 4.8 1.2
v 1.1 4.3 1.3
v 1.1 4.3 1.2
v 1.1 4.4 1.3
v 1.1 4.4 1.2
v 1.1 4.6 1.3
v 1.1 4.6 1.2
v 1.1 4.7 1.3
v 1.1 4.7 1.2
v 1.2 4 1.3
v 1.2 4 1.2
v 1.2 4.3 1.3
v 1.2 4.3 1.2
v 1.2 4.4 1.3
v 1.2 4.4 1.2
v 1.2 4.6 1.3
v 1.2 4.6 1.2
v 1.2 4.7 1.3
v 1.2 4.7 1.2
v 1.2 4.8 1.3
v 1.2 4.8 1.2
v 1.2 5 1.3
v 1.2 5 1.2
v 1.4 4 0.2
v 1.4 4 -2.38419e-007
v 1.4 4.1 0.2
v 1.4 4.1 -2.38419e-007
v 1.5 4.4 1.3
v 1.5 4.4 1.2
v 1.5 4.5 1.3
v 1.5 4.5 1.2
v 1.6 4.5 1.3
v 1.6 4.5 1.2
v 1.6 4.6 1.3
v 1.6 4.6 1.2
v 1.6 4.7 1.3
v 1.6 4.7 1.2
v -1.4 4 1.1
v -1.4 4 0.9
v -1.4 4.1 1
v -1.4 4.1 0.9
v -1.4 4.2 1.1
v -1.4 4.2 1
v -1.4 4.2 0.9
v -0.9 4 -0.3
v -0.9 4 -0.5
v -0.9 4.1 -0.3
v -0.9 4.1 -0.5
v -0.9 4.2 -0.3
v -0.9 4.2 -0.5
v 0.4 4 1.6
v 0.4 4 1.4
v 0.4 4.1 1.6
v 0.4 4.1 1.4
v 0.5 4 -1.3
v 0.5 4 -1.7
v 0.5 4.2 -1.4
v 0.5 4.2 -1.5
v 0.5 4.3 -1.5
v 0.5 4.3 -1.6
v 0.5 4.4 -1.3
v 0.5 4.4 -1.4
v 0.5 4.4 -1.6
v 0.5 4.4 -1.7
v 0.5 4.5 -1.3
v 0.5 4.5 -1.7
v 1 4.5 1.3
v 1 4.5 1.2
v 1 4.6 1.3
v 1 4.6 1.2
v 1 4.8 1.3
v 1 4.8 1.2
v 1 4.9 1.3
v 1 4.9 1.2
v 1.1 4.4 1.3
v 1.1 4.4 1.2
v 1.1 4.5 1.3
v 1.1 4.5 1.2
v 1.1 4.7 1.3
v 1.1 4.7 1.2
v 1.1 4.8 1.3
v 1.1 4.8 1.2
v 1.3 4 1.3
v 1.3 4 1.2
v 1.3 4.3 1.3
v 1.3 4.3 1.2
v 1.3 4.4 1.3
v 1.3 4.4 1.2
v 1.3 4.8 1.3
v 1.3 4.8 1.2
v 1.3 4.9 1.3
v 1.3 4.9 1.2
v 1.3 5 1.3
v 1.3 5 1.2
v 1.4 4.8 1.3
v 1.4 4.8 1.2
v 1.4 4.9 1.3
v 1.4 4.9 1.2
v 1.6 4 0.2
v 1.6 4 -2.38419e-007
v 1.6 4.1 0.2
v 1.6 4.1 -2.38419e-007
v 1.6 4.3 1.3
v 1.6 4.3 1.2
v 1.6 4.5 1.3
v 1.6 4.5 1.2
v 1.7 4.5 1.3
v 1.7 4.5 1.2
v 1.7 4.6 1.3
v 1.7 4.6 1.2
v 1.7 4.7 1.3
v 1.7 4.7 1.2
v 2 0 2
v 2 0 -2
v 2 4 2
v 2 4 -2
v -2 0 2
v -2 4 2
v 2 0 2
v 2 4 2
v 0.2 4 1.6
v 0.2 4.1 1.6
v 0.3 4 1.6
v 0.3 4.1 1.6
v 0.4 4 1.6
v 0.4 4.1 1.6
v 0.9 4.5 1.3
v 0.9 4.6 1.3
v 0.9 4.8 1.3
v 0.9 4.9 1.3
v 1 4.4 1.3
v 1 4.5 1.3
v 1 4.6 1.3
v 1 4.7 1.3
v 1 4.8 1.3
v 1 4.9 1.3
v 1.1 4.3 1.3
v 1.1 4.4 1.3
v 1.1 4.5 1.3
v 1.1 4.6 1.3
v 1.1 4.7 1.3
v 1.1 4.8 1.3
v 1.2 4 1.3
v 1.2 4.3 1.3
v 1.2 4.4 1.3
v 1.2 4.6 1.3
v 1.2 4.7 1.3
v 1.2 4.8 1.3
v 1.2 5 1.3
v 1.3 4 1.3
v 1.3 4.3 1.3
v 1.3 4.4 1.3
v 1.3 4.8 1.3
v 1.3 4.9 1.3
v 1.3 5 1.3
v 1.4 4.8 1.3
v 1.4 4.9 1.3
v 1.5 4.4 1.3
v 1.5 4.5 1.3
v 1.6 4.3 1.3
v 1.6 4.5 1.3
v 1.6 4.6 1.3
v 1.6 4.7 1.3
v 1.7 4.5 1.3
v 1.7 4.6 1.3
v 1.7 4.7 1.3
v -1.6 4 1.1
v -1.6 4.1 1.1
v -1.6 4.2 1.1
v -1.5 4.1 1.1
v -1.5 4.2 1.1
v -1.4 4 1.1
v -1.4 4.2 1.1
v 1.4 4 0.2
v 1.4 4.1 0.2
v 1.6 4 0.2
v 1.6 4.1 0.2
v -1.1 4 -0.3
v -1.1 4.2 -0.3
v -1 4 -0.3
v -1 4.1 -0.3
v -0.9 4 -0.3
v -0.9 4.1 -0.3
v -0.9 4.2 -0.3
v 2.38419e-007 4 -1.3
v 2.38419e-007 4.4 -1.3
v 2.38419e-007 4.5 -1.3
v 0.1 4.2 -1.3
v 0.1 4.4 -1.3
v 0.2 4.2 -1.3
v 0.2 4.3 -1.3
v 0.3 4.3 -1.3
v 0.3 4.4 -1.3
v 0.5 4 -1.3
v 0.5 4.4 -1.3
v 0.5 4.5 -1.3
v 0.2 4 1.4
v 0.2 4.1 1.4
v 0.4 4 1.4
v 0.4 4.1 1.4
v 0.9 4.5 1.2
v 0.9 4.6 1.2
v 0.9 4.8 1.2
v 0.9 4.9 1.2
v 1 4.4 1.2
v 1 4.5 1.2
v 1 4.6 1.2
v 1 4.7 1.2
v 1 4.8 1.2
v 1 4.9 1.2
v 1.1 4.3 1.2
v 1.1 4.4 1.2
v 1.1 4.5 1.2
v 1.1 4.6 1.2
v 1.1 4.7 1.2
v 1.1 4.8 1.2
v 1.2 4 1.2
v 1.2 4.3 1.2
v 1.2 4.4 1.2
v 1.2 4.6 1.2
v 1.2 4.7 1.2
v 1.2 4.8 1.2
v 1.2 5 1.2
v 1.3 4 1.2
v 1.3 4.3 1.2
v 1.3 4.4 1.2
v 1.3 4.8 1.2
v 1.3 4.9 1.2
v 1.3 5 1.2
v 1.4 4.8 1.2
v 1.4 4.9 1.2
v 1.5 4.4 1.2
v 1.5 4.5 1.2
v 1.6 4.3 1.2
v 1.6 4.5 1.2
v 1.6 4.6 1.2
v 1.6 4.7 1.2
v 1.7 4.5 1.2
v 1.7 4.6 1.2
v 1.7 4.7 1.2
v -1.6 4 0.9
v -1.6 4.1 0.9
v -1.6 4.2 0.9
v -1.4 4 0.9
v -1.4 4.1 0.9
v -1.4 4.2 0.9
v 1.4 4 -2.38419e-007
v 1.4 4.1 -2.38419e-007
v 1.6 4 -2.38419e-007
v 1.6 4.1 -2.38419e-007
v -1.1 4 -0.5
v -1.1 4.1 -0.5
v -1.1 4.2 -0.5
v -0.9 4 -0.5
v -0.9 4.1 -0.5
v -0.9 4.2 -0.5
v 2.38419e-007 4 -1.7
v 2.38419e-007 4.4 -1.7
v 2.38419e-007 4.5 -1.7
v 0.2 4.2 -1.7
v 0.2 4.4 -1.7
v 0.3 4.2 -1.7
v 0.3 4.3 -1.7
v 0.4 4.3 -1.7
v 0.4 4.4 -1.7
v 0.5 4 -1.7
v 0.5 4.4 -1.7
v 0.5 4.5 -1.7
v -2 0 -2
v -2 4 -2
v 2 0 -2
v 2 4 -2
v -2 0 2
v 2 0 2
v -2 0 -2
v 2 0 -2
v 1.1 4.3 1.3
v 1.2 4.3 1.3
v 1.3 4.3 1.3
v 1.6 4.3 1.3
v 1.1 4.3 1.2
v 1.2 4.3 1.2
v 1.3 4.3 1.2
v 1.6 4.3 1.2
v 1 4.4 1.3
v 1.1 4.4 1.3
v 1 4.4 1.2
v 1.1 4.4 1.2
v 0.9 4.5 1.3
v 1 4.5 1.3
v 1.6 4.5 1.3
v 1.7 4.5 1.3
v 0.9 4.5 1.2
v 1 4.5 1.2
v 1.6 4.5 1.2
v 1.7 4.5 1.2
v 1.1 4.6 1.3
v 1.2 4.6 1.3
v 1.1 4.6 1.2
v 1.2 4.6 1.2
v 1 4.7 1.3
v 1.1 4.7 1.3
v 1 4.7 1.2
v 1.1 4.7 1.2
v 0.9 4.8 1.3
v 1 4.8 1.3
v 1.3 4.8 1.3
v 1.4 4.8 1.3
v 0.9 4.8 1.2
v 1 4.8 1.2
v 1.3 4.8 1.2
v 1.4 4.8 1.2
v -2 4 2
v 2 4 2
v 0.2 4 1.6
v 0.3 4 1.6
v 0.4 4 1.6
v 0.2 4 1.5
v 0.2 4 1.4
v 0.4 4 1.4
v 1.2 4 1.3
v 1.3 4 1.3
v 1.2 4 1.2
v 1.3 4 1.2
v -1.6 4 1.1
v -1.4 4 1.1
v -1.6 4 0.9
v -1.4 4 0.9
v 1.4 4 0.2
v 1.6 4 0.2
v 1.4 4 -2.38419e-007
v 1.6 4 -2.38419e-007
v -1.1 4 -0.3
v -1 4 -0.3
v -0.9 4 -0.3
v -1.1 4 -0.4
v -1.1 4 -0.5
v -0.9 4 -0.5
v 2.38419e-007 4 -1.3
v 0.5 4 -1.3
v 2.38419e-007 4 -1.7
v 0.5 4 -1.7
v -2 4 -2
v 2 4 -2
v 0.2 4.1 1.6
v 0.3 4.1 1.6
v 0.4 4.1 1.6
v 0.2 4.1 1.5
v 0.3 4.1 1.5
v 0.2 4.1 1.4
v 0.4 4.1 1.4
v 1.4 4.1 0.2
v 1.6 4.1 0.2
v 1.4 4.1 -2.38419e-007
v 1.6 4.1 -2.38419e-007
v -1.6 4.2 1.1
v -1.5 4.2 1.1
v -1.4 4.2 1.1
v -1.5 4.2 1
v -1.4 4.2 1
v -1.6 4.2 0.9
v -1.4 4.2 0.9
v -1.1 4.2 -0.3
v -0.9 4.2 -0.3
v -1.1 4.2 -0.5
v -0.9 4.2 -0.5
v 1.1 4.4 1.3
v 1.2 4.4 1.3
v 1.3 4.4 1.3
v 1.5 4.4 1.3
v 1.1 4.4 1.2
v 1.2 4.4 1.2
v 1.3 4.4 1.2
v 1.5 4.4 1.2
v 1 4.5 1.3
v 1.1 4.5 1.3
v 1.5 4.5 1.3
v 1.6 4.5 1.3
v 1 4.5 1.2
v 1.1 4.5 1.2
v 1.5 4.5 1.2
v 1.6 4.5 1.2
v 2.38419e-007 4.5 -1.3
v 0.5 4.5 -1.3
v 2.38419e-007 4.5 -1.7
v 0.5 4.5 -1.7
v 0.9 4.6 1.3
v 1 4.6 1.3
v 0.9 4.6 1.2
v 1 4.6 1.2
v 1.1 4.7 1.3
v 1.2 4.7 1.3
v 1.6 4.7 1.3
v 1.7 4.7 1.3
v 1.1 4.7 1.2
v 1.2 4.7 1.2
v 1.6 4.7 1.2
v 1.7 4.7 1.2
v 1 4.8 1.3
v 1.1 4.8 1.3
v 1 4.8 1.2
v 1.1 4.8 1.2
v 0.9 4.9 1.3
v 1 4.9 1.3
v 1.3 4.9 1.3
v 1.4 4.9 1.3
v 0.9 4.9 1.2
v 1 4.9 1.2
v 1.3 4.9 1.2
v 1.4 4.9 1.2
v 1.2 5 1.3
v 1.3 5 1.3
v 1.2 5 1.2
v 1.3 5 1.2

# faces
f 3/1/1 2/1/1 1/1/1
f 4/1/1 2/1/1 3/1/1
f 7/3/1 6/3/1 5/3/1
f 8/3/1 6/3/1 7/3/1
f 9/1/1 8/1/1 7/1/1
f 10/1/1 8/1/1 9/1/1
f 14/1/1 12/1/1 11/1/1
f 14/3/1 13/3/1 12/3/1
f 15/3/1 13/3/1 14/3/1
f 16/1/1 14/1/1 11/1/1
f 16/1/1 15/1/1 14/1/1
f 17/1/1 15/1/1 16/1/1
f 20/3/1 19/3/1 18/3/1
f 21/3/1 19/3/1 20/3/1
f 22/3/1 20/3/1 18/3/1
f 23/1/1 21/1/1 20/1/1
f 23/3/1 20/3/1 22/3/1
f 24/3/1 19/3/1 21/3/1
f 24/1/1 21/1/1 23/1/1
f 25/3/1 19/3/1 24/3/1
f 26/1/1 23/1/1 22/1/1
f 26/1/1 24/1/1 23/1/1
f 26/1/1 25/1/1 24/1/1
f 27/1/1 25/1/1 26/1/1
f 31/3/1 29/3/1 28/3/1
f 32/1/1 30/1/1 29/1/1
f 32/3/1 29/3/1 31/3/1
f 33/1/1 30/1/1 32/1/1
f 36/1/1 35/1/1 34/1/1
f 37/1/1 35/1/1 36/1/1
f 40/1/1 39/1/1 38/1/1
f 41/1/1 39/1/1 40/1/1
f 44/1/1 43/1/1 42/1/1
f 45/1/1 43/1/1 44/1/1
f 48/1/1 47/1/1 46/1/1
f 49/1/1 47/1/1 48/1/1
f 52/1/1 51/1/1 50/1/1
f 53/1/1 51/1/1 52/1/1
f 56/1/1 55/1/1 54/1/1
f 57/1/1 55/1/1 56/1/1
f 60/2/1 59/2/1 58/2/1
f 61/2/1 59/2/1 60/2/1
f 64/2/1 63/2/1 62/2/1
f 65/2/1 63/2/1 64/2/1
f 68/2/1 67/2/1 66/2/1
f 69/2/1 67/2/1 68/2/1
f 70/1/1 69/1/1 68/1/1
f 71/1/1 69/1/1 70/1/1
f 74/1/1 73/1/1 72/1/1
f 75/1/1 73/1/1 74/1/1
f 78/2/1 77/2/1 76/2/1
f 79/2/1 77/2/1 78/2/1
f 82/2/1 81/2/1 80/2/1
f 83/2/1 81/2/1 82/2/1
f 84/1/1 83/1/1 82/1/1
f 85/1/1 83/1/1 84/1/1
f 86/3/2 87/3/2 88/3/2
f 88/3/2 87/3/2 89/3/2
f 86/3/2 88/3/2 90/3/2
f 88/1/2 89/1/2 91/1/2
f 90/3/2 88/3/2 91/3/2
f 91/1/2 89/1/2 92/1/2
f 93/3/2 94/3/2 95/3/2
f 95/3/2 94/3/2 96/3/2
f 95/1/2 96/1/2 97/1/2
f 97/1/2 96/1/2 98/1/2
f 99/1/2 100/1/2 101/1/2
f 101/1/2 100/1/2 102/1/2
f 103/3/2 104/3/2 105/3/2
f 105/3/2 104/3/2 106/3/2
f 105/1/2 106/1/2 107/1/2
f 106/3/2 104/3/2 107/3/2
f 107/3/2 104/3/2 108/3/2
f 103/3/2 105/3/2 109/3/2
f 105/1/2 107/1/2 110/1/2
f 109/3/2 105/3/2 110/3/2
f 107/1/2 108/1/2 110/1/2
f 108/3/2 104/3/2 111/3/2
f 110/1/2 108/1/2 111/1/2
f 111/3/2 104/3/2 112/3/2
f 109/1/2 110/1/2 113/1/2
f 110/1/2 111/1/2 113/1/2
f 111/1/2 112/1/2 113/1/2
f 113/1/2 112/1/2 114/1/2
f 115/1/2 116/1/2 117/1/2
f 117/1/2 116/1/2 118/1/2
f 119/1/2 120/1/2 121/1/2
f 121/1/2 120/1/2 122/1/2
f 123/1/2 124/1/2 125/1/2
f 125/1/2 124/1/2 126/1/2
f 127/1/2 128/1/2 129/1/2
f 129/1/2 128/1/2 130/1/2
f 131/2/2 132/2/2 133/2/2
f 133/2/2 132/2/2 134/2/2
f 135/2/2 136/2/2 137/2/2
f 137/2/2 136/2/2 138/2/2
f 139/1/2 140/1/2 141/1/2
f 141/1/2 140/1/2 142/1/2
f 143/1/2 144/1/2 145/1/2
f 145/1/2 144/1/2 146/1/2
f 147/1/2 148/1/2 149/1/2
f 149/1/2 148/1/2 150/1/2
f 151/2/2 152/2/2 153/2/2
f 153/2/2 152/2/2 154/2/2
f 155/2/2 156/2/2 157/2/2
f 157/2/2 156/2/2 158/2/2
f 157/1/2 158/1/2 159/1/2
f 159/1/2 158/1/2 160/1/2
f 161/1/2 162/1/2 163/1/2
f 163/1/2 162/1/2 164/1/2
f 167/1/3 166/1/3 165/1/3
f 168/1/3 166/1/3 167/1/3
f 171/3/3 170/3/3 169/3/3
f 172/3/3 170/3/3 171/3/3
f 173/1/3 172/1/3 171/1/3
f 174/1/3 172/1/3 173/1/3
f 180/1/3 176/1/3 175/1/3
f 181/1/3 176/1/3 180/1/3
f 183/1/3 178/1/3 177/1/3
f 184/1/3 178/1/3 183/1/3
f 186/1/3 180/1/3 179/1/3
f 187/1/3 180/1/3 186/1/3
f 189/1/3 183/1/3 182/1/3
f 190/1/3 183/1/3 189/1/3
f 192/1/3 186/1/3 185/1/3
f 193/1/3 186/1/3 192/1/3
f 194/1/3 189/1/3 188/1/3
f 195/1/3 189/1/3 194/1/3
f 198/2/3 196/2/3 195/2/3
f 198/2/3 195/2/3 194/2/3
f 198/2/3 194/2/3 193/2/3
f 198/2/3 193/2/3 192/2/3
f 198/2/3 192/2/3 191/2/3
f 199/2/3 196/2/3 198/2/3
f 200/2/3 196/2/3 199/2/3
f 201/1/3 197/1/3 196/1/3
f 201/2/3 196/2/3 200/2/3
f 202/1/3 197/1/3 201/1/3
f 203/1/3 197/1/3 202/1/3
f 204/1/3 202/1/3 201/1/3
f 205/1/3 202/1/3 204/1/3
f 206/2/3 200/2/3 199/2/3
f 208/2/3 206/2/3 199/2/3
f 208/2/3 207/2/3 206/2/3
f 209/2/3 207/2/3 208/2/3
f 212/2/3 210/2/3 209/2/3
f 213/1/3 211/1/3 210/1/3
f 213/2/3 210/2/3 212/2/3
f 214/1/3 211/1/3 213/1/3
f 218/3/3 216/3/3 215/3/3
f 218/1/3 217/1/3 216/1/3
f 219/1/3 217/1/3 218/1/3
f 220/3/3 218/3/3 215/3/3
f 220/3/3 219/3/3 218/3/3
f 221/3/3 219/3/3 220/3/3
f 224/1/3 223/1/3 222/1/3
f 225/1/3 223/1/3 224/1/3
f 228/1/3 227/1/3 226/1/3
f 229/1/3 227/1/3 228/1/3
f 230/3/3 229/3/3 228/3/3
f 231/1/3 227/1/3 229/1/3
f 231/3/3 229/3/3 230/3/3
f 232/1/3 227/1/3 231/1/3
f 236/3/3 234/3/3 233/3/3
f 237/1/3 235/1/3 234/1/3
f 237/3/3 234/3/3 236/3/3
f 238/3/3 236/3/3 233/3/3
f 238/1/3 237/1/3 236/1/3
f 239/1/3 237/1/3 238/1/3
f 240/3/3 239/3/3 238/3/3
f 240/1/3 237/1/3 239/1/3
f 241/1/3 235/1/3 237/1/3
f 241/1/3 237/1/3 240/1/3
f 242/3/3 240/3/3 238/3/3
f 242/3/3 238/3/3 233/3/3
f 242/3/3 241/3/3 240/3/3
f 243/1/3 235/1/3 241/1/3
f 243/3/3 241/3/3 242/3/3
f 244/1/3 235/1/3 243/1/3
f 245/1/4 246/1/4 247/1/4
f 247/1/4 246/1/4 248/1/4
f 249/1/4 250/1/4 254/1/4
f 254/1/4 250/1/4 255/1/4
f 251/1/4 252/1/4 257/1/4
f 257/1/4 252/1/4 258/1/4
f 253/1/4 254/1/4 260/1/4
f 260/1/4 254/1/4 261/1/4
f 256/1/4 257/1/4 263/1/4
f 263/1/4 257/1/4 264/1/4
f 259/1/4 260/1/4 266/1/4
f 266/1/4 260/1/4 267/1/4
f 262/1/4 263/1/4 268/1/4
f 268/1/4 263/1/4 269/1/4
f 269/2/4 270/2/4 272/2/4
f 268/2/4 269/2/4 272/2/4
f 267/2/4 268/2/4 272/2/4
f 266/2/4 267/2/4 272/2/4
f 265/2/4 266/2/4 272/2/4
f 272/2/4 270/2/4 273/2/4
f 273/2/4 270/2/4 274/2/4
f 270/1/4 271/1/4 275/1/4
f 274/2/4 270/2/4 275/2/4
f 275/1/4 271/1/4 276/1/4
f 276/1/4 271/1/4 277/1/4
f 275/1/4 276/1/4 278/1/4
f 278/1/4 276/1/4 279/1/4
f 273/2/4 274/2/4 280/2/4
f 273/2/4 280/2/4 282/2/4
f 280/2/4 281/2/4 282/2/4
f 282/2/4 281/2/4 283/2/4
f 283/2/4 284/2/4 286/2/4
f 284/1/4 285/1/4 287/1/4
f 286/2/4 284/2/4 287/2/4
f 287/1/4 285/1/4 288/1/4
f 289/3/4 290/3/4 292/3/4
f 290/1/4 291/1/4 293/1/4
f 292/3/4 290/3/4 293/3/4
f 293/1/4 291/1/4 294/1/4
f 295/1/4 296/1/4 297/1/4
f 297/1/4 296/1/4 298/1/4
f 299/3/4 300/3/4 302/3/4
f 300/1/4 301/1/4 303/1/4
f 302/3/4 300/3/4 303/3/4
f 303/1/4 301/1/4 304/1/4
f 305/3/4 306/3/4 308/3/4
f 306/1/4 307/1/4 309/1/4
f 308/3/4 306/3/4 309/3/4
f 305/3/4 308/3/4 310/3/4
f 308/1/4 309/1/4 310/1/4
f 310/1/4 309/1/4 311/1/4
f 310/3/4 311/3/4 312/3/4
f 311/1/4 309/1/4 312/1/4
f 309/1/4 307/1/4 313/1/4
f 312/1/4 309/1/4 313/1/4
f 310/3/4 312/3/4 314/3/4
f 305/3/4 310/3/4 314/3/4
f 312/3/4 313/3/4 314/3/4
f 313/1/4 307/1/4 315/1/4
f 314/3/4 313/3/4 315/3/4
f 315/1/4 307/1/4 316/1/4
f 317/1/4 318/1/4 319/1/4
f 319/1/4 318/1/4 320/1/4
f 323/1/5 322/1/5 321/1/5
f 324/1/5 322/1/5 323/1/5
f 329/1/5 326/1/5 325/1/5
f 330/1/5 326/1/5 329/1/5
f 331/2/5 328/2/5 327/2/5
f 332/2/5 328/2/5 331/2/5
f 335/1/5 334/1/5 333/1/5
f 336/1/5 334/1/5 335/1/5
f 341/1/5 338/1/5 337/1/5
f 342/1/5 338/1/5 341/1/5
f 343/2/5 340/2/5 339/2/5
f 344/2/5 340/2/5 343/2/5
f 347/1/5 346/1/5 345/1/5
f 348/1/5 346/1/5 347/1/5
f 351/1/5 350/1/5 349/1/5
f 352/1/5 350/1/5 351/1/5
f 357/1/5 354/1/5 353/1/5
f 358/1/5 354/1/5 357/1/5
f 359/1/5 356/1/5 355/1/5
f 360/1/5 356/1/5 359/1/5
f 361/1/6 362/1/6 363/1/6
f 363/1/6 362/1/6 364/1/6
f 364/1/6 362/1/6 365/1/6
f 361/1/6 363/1/6 366/1/6
f 361/1/6 366/1/6 367/1/6
f 365/1/6 362/1/6 368/1/6
f 368/1/6 362/1/6 369/1/6
f 367/1/6 368/1/6 369/1/6
f 369/1/6 362/1/6 370/1/6
f 367/1/6 369/1/6 371/1/6
f 370/1/6 362/1/6 372/1/6
f 361/1/6 367/1/6 373/1/6
f 371/1/6 372/1/6 373/1/6
f 367/1/6 371/1/6 373/1/6
f 373/1/6 372/1/6 374/1/6
f 361/1/6 373/1/6 375/1/6
f 374/1/6 372/1/6 376/1/6
f 372/1/6 362/1/6 377/1/6
f 375/1/6 376/1/6 377/1/6
f 376/1/6 372/1/6 377/1/6
f 377/1/6 362/1/6 378/1/6
f 375/1/6 377/1/6 379/1/6
f 378/1/6 362/1/6 380/1/6
f 375/1/6 379/1/6 381/1/6
f 379/1/6 380/1/6 381/1/6
f 381/1/6 380/1/6 382/1/6
f 382/1/6 380/1/6 383/1/6
f 375/1/6 381/1/6 384/1/6
f 375/1/6 384/1/6 385/1/6
f 383/1/6 380/1/6 386/1/6
f 386/1/6 380/1/6 387/1/6
f 385/1/6 386/1/6 387/1/6
f 387/1/6 380/1/6 388/1/6
f 385/1/6 387/1/6 389/1/6
f 388/1/6 380/1/6 390/1/6
f 361/1/6 375/1/6 391/1/6
f 389/1/6 390/1/6 391/1/6
f 375/1/6 385/1/6 391/1/6
f 385/1/6 389/1/6 391/1/6
f 390/1/6 380/1/6 392/1/6
f 391/1/6 390/1/6 392/1/6
f 380/1/6 362/1/6 392/1/6
f 393/3/6 394/3/6 396/3/6
f 394/1/6 395/1/6 397/1/6
f 396/3/6 394/3/6 397/3/6
f 396/1/6 397/1/6 398/1/6
f 397/1/6 395/1/6 399/1/6
f 398/1/6 397/1/6 399/1/6
f 400/1/6 401/1/6 402/1/6
f 402/1/6 401/1/6 403/1/6
f 404/1/6 405/1/6 407/1/6
f 405/3/6 406/3/6 407/3/6
f 407/3/6 406/3/6 408/3/6
f 404/1/6 407/1/6 409/1/6
f 407/1/6 408/1/6 409/1/6
f 409/1/6 408/1/6 410/1/6
f 411/1/6 412/1/6 413/1/6
f 413/1/6 412/1/6 414/1/6
f 415/1/6 416/1/6 419/1/6
f 419/1/6 416/1/6 420/1/6
f 417/2/6 418/2/6 421/2/6
f 421/2/6 418/2/6 422/2/6
f 423/1/6 424/1/6 427/1/6
f 427/1/6 424/1/6 428/1/6
f 425/2/6 426/2/6 429/2/6
f 429/2/6 426/2/6 430/2/6
f 431/1/6 432/1/6 433/1/6
f 433/1/6 432/1/6 434/1/6
f 435/1/6 436/1/6 437/1/6
f 437/1/6 436/1/6 438/1/6
f 439/1/6 440/1/6 443/1/6
f 443/1/6 440/1/6 444/1/6
f 441/1/6 442/1/6 445/1/6
f 445/1/6 442/1/6 446/1/6
f 447/1/6 448/1/6 449/1/6
f 449/1/6 448/1/6 450/1/6
f 451/1/6 452/1/6 455/1/6
f 455/1/6 452/1/6 456/1/6
f 453/1/6 454/1/6 457/1/6
f 457/1/6 454/1/6 458/1/6
f 459/1/6 460/1/6 461/1/6
f 461/1/6 460/1/6 462/1/6
