# MagicaVoxel @ Ephtracy

# group
o 

# material
mtllib untitled.mtl
usemtl palette

# normals
vn -1 0 0
vn 1 0 0
vn 0 0 1
vn 0 0 -1
vn 0 -1 0
vn 0 1 0

# texcoords
vt 0.341797 0.5
vt 0.634766 0.5
vt 0.638672 0.5
vt 0.646484 0.5
vt 0.783203 0.5
vt 0.962891 0.5
vt 0.990234 0.5

# verts
v -0.6 0.4 0.2
v -0.6 0.4 -0.9
v -0.6 0.9 0.5
v -0.6 0.9 0.2
v -0.6 0.9 -0.6
v -0.6 0.9 -0.9
v -0.6 1.3 0.5
v -0.6 1.3 -0.6
v -0.5 0 0.6
v -0.5 0 0
v -0.5 0 -0.2
v -0.5 0 -0.8
v -0.5 0.4 0.6
v -0.5 0.4 0.2
v -0.5 0.4 0
v -0.5 0.4 -0.2
v -0.5 0.4 -0.8
v -0.4 0.4 0.9
v -0.4 0.4 0.6
v -0.4 0.4 0.2
v -0.4 0.7 1.3
v -0.4 0.7 0.9
v -0.4 0.9 0.5
v -0.4 0.9 0.2
v -0.4 1.3 0.8
v -0.4 1.3 0.7
v -0.4 1.3 0.5
v -0.4 1.3 -0.1
v -0.4 1.4 0.9
v -0.4 1.4 0.8
v -0.4 1.4 0
v -0.4 1.4 -0.1
v -0.4 1.5 1
v -0.4 1.5 0.9
v -0.4 1.5 0.2
v -0.4 1.5 0
v -0.4 1.7 1.3
v -0.4 1.7 1
v -0.4 1.7 0.4
v -0.4 1.7 0.2
v -0.4 2 0.7
v -0.4 2 0.4
v -0.2 0.5 -0.9
v -0.2 0.5 -1.2
v -0.2 0.9 -0.6
v -0.2 0.9 -0.9
v -0.2 1 -1.1
v -0.2 1 -1.2
v -0.2 1.1 -1
v -0.2 1.1 -1.1
v -0.2 1.2 -0.9
v -0.2 1.2 -1
v -0.2 1.3 -0.6
v -0.2 1.3 -0.9
v 0.1 0.4 -0.1
v 0.1 0.4 -0.2
v 0.1 0.4 -0.9
v 0.1 0.4 -1.2
v 0.1 0.5 -0.1
v 0.1 0.5 -0.2
v 0.1 0.5 -0.9
v 0.1 0.5 -1.2
v 0.2 0 0.6
v 0.2 0 0
v 0.2 0 -0.2
v 0.2 0 -0.8
v 0.2 0.4 0.6
v 0.2 0.4 0
v 0.2 0.4 -0.1
v 0.2 0.4 -0.2
v 0.2 0.4 -0.8
v 0.2 0.4 -0.9
v 0.2 0.5 0.6
v 0.2 0.5 -0.1
v 0.2 0.5 -0.2
v 0.2 0.5 -0.9
v 0.4 0.9 -0.7
v 0.4 0.9 -0.8
v 0.4 1 -0.7
v 0.4 1 -0.8
v -0.2 0 0.6
v -0.2 0 0
v -0.2 0 -0.2
v -0.2 0 -0.8
v -0.2 0.4 0.6
v -0.2 0.4 0
v -0.2 0.4 -0.2
v -0.2 0.4 -0.8
v -0.2 0.4 -0.9
v -0.2 0.5 0.6
v -0.2 0.5 -0.9
v 0.2 0.4 -0.9
v 0.2 0.4 -1.2
v 0.2 0.9 -0.7
v 0.2 0.9 -0.9
v 0.2 1 -1.1
v 0.2 1 -1.2
v 0.2 1.1 -0.6
v 0.2 1.1 -0.7
v 0.2 1.1 -1
v 0.2 1.1 -1.1
v 0.2 1.2 -0.9
v 0.2 1.2 -1
v 0.2 1.3 -0.6
v 0.2 1.3 -0.9
v 0.4 0.4 0.9
v 0.4 0.4 0.6
v 0.4 0.4 0.2
v 0.4 0.7 1.3
v 0.4 0.7 0.9
v 0.4 0.9 0.5
v 0.4 0.9 0.2
v 0.4 1 0.9
v 0.4 1 0.8
v 0.4 1 0.6
v 0.4 1.1 0.9
v 0.4 1.1 0.8
v 0.4 1.1 0.7
v 0.4 1.1 0.6
v 0.4 1.2 0.9
v 0.4 1.2 0.7
v 0.4 1.2 0.6
v 0.4 1.3 0.8
v 0.4 1.3 0.7
v 0.4 1.3 0.5
v 0.4 1.3 -0.1
v 0.4 1.4 0.9
v 0.4 1.4 0.8
v 0.4 1.4 0
v 0.4 1.4 -0.1
v 0.4 1.5 1
v 0.4 1.5 0.9
v 0.4 1.5 0.2
v 0.4 1.5 0
v 0.4 1.7 1.3
v 0.4 1.7 1
v 0.4 1.7 0.4
v 0.4 1.7 0.2
v 0.4 2 0.7
v 0.4 2 0.4
v 0.5 0 0.6
v 0.5 0 0
v 0.5 0 -0.2
v 0.5 0 -0.8
v 0.5 0.4 0.6
v 0.5 0.4 0.2
v 0.5 0.4 0
v 0.5 0.4 -0.2
v 0.5 0.4 -0.8
v 0.6 0.4 0.2
v 0.6 0.4 -0.9
v 0.6 0.9 0.5
v 0.6 0.9 0.2
v 0.6 0.9 -0.8
v 0.6 0.9 -0.9
v 0.6 1 -0.7
v 0.6 1 -0.8
v 0.6 1.1 -0.6
v 0.6 1.1 -0.7
v 0.6 1.3 0.5
v 0.6 1.3 -0.6
v -0.4 0.7 1.3
v -0.4 1.7 1.3
v 0.4 0.7 1.3
v 0.4 1.7 1.3
v -0.4 0.4 0.9
v -0.4 0.7 0.9
v 0.4 0.4 0.9
v 0.4 0.7 0.9
v -0.4 1.3 0.7
v -0.4 2 0.7
v 0.4 1.3 0.7
v 0.4 2 0.7
v -0.5 0 0.6
v -0.5 0.4 0.6
v -0.4 0.4 0.6
v -0.2 0 0.6
v -0.2 0.4 0.6
v 0.2 0 0.6
v 0.2 0.4 0.6
v 0.4 0.4 0.6
v 0.5 0 0.6
v 0.5 0.4 0.6
v -0.6 0.9 0.5
v -0.6 1.3 0.5
v -0.4 0.9 0.5
v -0.4 1.3 0.5
v 0.4 0.9 0.5
v 0.4 1.3 0.5
v 0.6 0.9 0.5
v 0.6 1.3 0.5
v -0.6 0.4 0.2
v -0.6 0.9 0.2
v -0.5 0.4 0.2
v -0.4 0.4 0.2
v -0.4 0.9 0.2
v 0.4 0.4 0.2
v 0.4 0.9 0.2
v 0.5 0.4 0.2
v 0.6 0.4 0.2
v 0.6 0.9 0.2
v 0.1 0.4 -0.1
v 0.1 0.5 -0.1
v 0.2 0.4 -0.1
v 0.2 0.5 -0.1
v -0.5 0 -0.2
v -0.5 0.4 -0.2
v -0.2 0 -0.2
v -0.2 0.4 -0.2
v 0.2 0 -0.2
v 0.2 0.4 -0.2
v 0.5 0 -0.2
v 0.5 0.4 -0.2
v 0.1 0.4 -0.9
v 0.1 0.5 -0.9
v 0.2 0.4 -0.9
v 0.2 0.5 -0.9
v -0.4 1.5 1
v -0.4 1.7 1
v 0.4 1.5 1
v 0.4 1.7 1
v -0.4 1.4 0.9
v -0.4 1.5 0.9
v 0.4 1.4 0.9
v 0.4 1.5 0.9
v -0.4 1.3 0.8
v -0.4 1.4 0.8
v 0.4 1.3 0.8
v 0.4 1.4 0.8
v -0.2 0.4 0.6
v -0.2 0.5 0.6
v 0.2 0.4 0.6
v 0.2 0.5 0.6
v -0.4 1.7 0.4
v -0.4 2 0.4
v 0.4 1.7 0.4
v 0.4 2 0.4
v -0.4 1.5 0.2
v -0.4 1.7 0.2
v 0.4 1.5 0.2
v 0.4 1.7 0.2
v -0.5 0 0
v -0.5 0.4 0
v -0.4 1.4 0
v -0.4 1.5 0
v -0.2 0 0
v -0.2 0.4 0
v 0.2 0 0
v 0.2 0.4 0
v 0.4 1.4 0
v 0.4 1.5 0
v 0.5 0 0
v 0.5 0.4 0
v -0.4 1.3 -0.1
v -0.4 1.4 -0.1
v 0.4 1.3 -0.1
v 0.4 1.4 -0.1
v 0.1 0.4 -0.2
v 0.1 0.5 -0.2
v 0.2 0.4 -0.2
v 0.2 0.5 -0.2
v -0.6 0.9 -0.6
v -0.6 1.3 -0.6
v -0.2 0.9 -0.6
v -0.2 1.3 -0.6
v 0.2 1.1 -0.6
v 0.2 1.3 -0.6
v 0.6 1.1 -0.6
v 0.6 1.3 -0.6
v 0.2 0.9 -0.7
v 0.2 1.1 -0.7
v 0.4 0.9 -0.7
v 0.4 1 -0.7
v 0.6 1 -0.7
v 0.6 1.1 -0.7
v -0.5 0 -0.8
v -0.5 0.4 -0.8
v -0.2 0 -0.8
v -0.2 0.4 -0.8
v 0.2 0 -0.8
v 0.2 0.4 -0.8
v 0.4 0.9 -0.8
v 0.4 1 -0.8
v 0.5 0 -0.8
v 0.5 0.4 -0.8
v 0.6 0.9 -0.8
v 0.6 1 -0.8
v -0.6 0.4 -0.9
v -0.6 0.9 -0.9
v -0.2 0.4 -0.9
v -0.2 0.5 -0.9
v -0.2 0.9 -0.9
v -0.2 1.2 -0.9
v -0.2 1.3 -0.9
v 0.2 0.4 -0.9
v 0.2 0.9 -0.9
v 0.2 1.2 -0.9
v 0.2 1.3 -0.9
v 0.6 0.4 -0.9
v 0.6 0.9 -0.9
v -0.2 1.1 -1
v -0.2 1.2 -1
v 0.2 1.1 -1
v 0.2 1.2 -1
v -0.2 1 -1.1
v -0.2 1.1 -1.1
v 0.2 1 -1.1
v 0.2 1.1 -1.1
v -0.2 0.5 -1.2
v -0.2 1 -1.2
v 0.1 0.4 -1.2
v 0.1 0.5 -1.2
v 0.2 0.4 -1.2
v 0.2 1 -1.2
v -0.5 0 0.6
v -0.2 0 0.6
v 0.2 0 0.6
v 0.5 0 0.6
v -0.5 0 0
v -0.2 0 0
v 0.2 0 0
v 0.5 0 0
v -0.5 0 -0.2
v -0.2 0 -0.2
v 0.2 0 -0.2
v 0.5 0 -0.2
v -0.5 0 -0.8
v -0.2 0 -0.8
v 0.2 0 -0.8
v 0.5 0 -0.8
v -0.4 0.4 0.9
v 0.4 0.4 0.9
v -0.4 0.4 0.6
v -0.2 0.4 0.6
v 0.2 0.4 0.6
v 0.4 0.4 0.6
v -0.6 0.4 0.2
v -0.5 0.4 0.2
v 0.5 0.4 0.2
v 0.6 0.4 0.2
v -0.5 0.4 0
v -0.2 0.4 0
v 0.2 0.4 0
v 0.5 0.4 0
v 0.1 0.4 -0.1
v 0.2 0.4 -0.1
v -0.5 0.4 -0.2
v -0.2 0.4 -0.2
v 0.1 0.4 -0.2
v 0.2 0.4 -0.2
v 0.5 0.4 -0.2
v -0.5 0.4 -0.8
v -0.2 0.4 -0.8
v 0.2 0.4 -0.8
v 0.5 0.4 -0.8
v -0.6 0.4 -0.9
v -0.2 0.4 -0.9
v 0.1 0.4 -0.9
v 0.2 0.4 -0.9
v 0.6 0.4 -0.9
v 0.1 0.4 -1.2
v 0.2 0.4 -1.2
v -0.2 0.5 0.6
v 0.2 0.5 0.6
v 0.1 0.5 -0.1
v 0.2 0.5 -0.1
v 0.1 0.5 -0.2
v 0.2 0.5 -0.2
v -0.2 0.5 -0.9
v 0.1 0.5 -0.9
v 0.2 0.5 -0.9
v -0.2 0.5 -1.2
v 0.1 0.5 -1.2
v -0.4 0.7 1.3
v 0.4 0.7 1.3
v -0.4 0.7 0.9
v 0.4 0.7 0.9
v -0.6 0.9 0.5
v -0.4 0.9 0.5
v 0.4 0.9 0.5
v 0.6 0.9 0.5
v -0.6 0.9 0.2
v -0.4 0.9 0.2
v 0.4 0.9 0.2
v 0.6 0.9 0.2
v -0.5 0.4 0.6
v -0.4 0.4 0.6
v 0.4 0.4 0.6
v 0.5 0.4 0.6
v -0.5 0.4 0.2
v -0.4 0.4 0.2
v 0.4 0.4 0.2
v 0.5 0.4 0.2
v -0.6 0.9 -0.6
v -0.2 0.9 -0.6
v 0.2 0.9 -0.7
v 0.4 0.9 -0.7
v 0.4 0.9 -0.8
v 0.6 0.9 -0.8
v -0.6 0.9 -0.9
v -0.2 0.9 -0.9
v 0.2 0.9 -0.9
v 0.6 0.9 -0.9
v 0.4 1 -0.7
v 0.6 1 -0.7
v 0.4 1 -0.8
v 0.6 1 -0.8
v -0.2 1 -1.1
v 0.2 1 -1.1
v -0.2 1 -1.2
v 0.2 1 -1.2
v 0.2 1.1 -0.6
v 0.6 1.1 -0.6
v 0.2 1.1 -0.7
v 0.6 1.1 -0.7
v -0.2 1.1 -1
v 0.2 1.1 -1
v -0.2 1.1 -1.1
v 0.2 1.1 -1.1
v -0.2 1.2 -0.9
v 0.2 1.2 -0.9
v -0.2 1.2 -1
v 0.2 1.2 -1
v -0.4 1.3 0.8
v 0.4 1.3 0.8
v -0.4 1.3 0.7
v 0.4 1.3 0.7
v -0.6 1.3 0.5
v -0.4 1.3 0.5
v 0.4 1.3 0.5
v 0.6 1.3 0.5
v -0.4 1.3 -0.1
v 0.4 1.3 -0.1
v -0.6 1.3 -0.6
v -0.2 1.3 -0.6
v 0.2 1.3 -0.6
v 0.6 1.3 -0.6
v -0.2 1.3 -0.9
v 0.2 1.3 -0.9
v -0.4 1.4 0.9
v 0.4 1.4 0.9
v -0.4 1.4 0.8
v 0.4 1.4 0.8
v -0.4 1.4 0
v 0.4 1.4 0
v -0.4 1.4 -0.1
v 0.4 1.4 -0.1
v -0.4 1.5 1
v 0.4 1.5 1
v -0.4 1.5 0.9
v 0.4 1.5 0.9
v -0.4 1.5 0.2
v 0.4 1.5 0.2
v -0.4 1.5 0
v 0.4 1.5 0
v -0.4 1.7 1.3
v 0.4 1.7 1.3
v -0.4 1.7 1
v 0.4 1.7 1
v -0.4 1.7 0.4
v 0.4 1.7 0.4
v -0.4 1.7 0.2
v 0.4 1.7 0.2
v -0.4 2 0.7
v 0.4 2 0.7
v -0.4 2 0.4
v 0.4 2 0.4

# faces
f 4/4/1 2/4/1 1/4/1
f 5/4/1 2/4/1 4/4/1
f 6/4/1 2/4/1 5/4/1
f 7/4/1 4/4/1 3/4/1
f 7/4/1 5/4/1 4/4/1
f 8/4/1 5/4/1 7/4/1
f 13/1/1 10/1/1 9/1/1
f 14/1/1 10/1/1 13/1/1
f 15/1/1 10/1/1 14/1/1
f 16/1/1 12/1/1 11/1/1
f 17/1/1 12/1/1 16/1/1
f 22/4/1 19/4/1 18/4/1
f 22/4/1 20/4/1 19/4/1
f 23/4/1 20/4/1 22/4/1
f 23/4/1 22/4/1 21/4/1
f 24/4/1 20/4/1 23/4/1
f 25/4/1 23/4/1 21/4/1
f 26/4/1 23/4/1 25/4/1
f 27/4/1 23/4/1 26/4/1
f 29/4/1 25/4/1 21/4/1
f 30/4/1 25/4/1 29/4/1
f 31/4/1 27/4/1 26/4/1
f 31/4/1 28/4/1 27/4/1
f 32/4/1 28/4/1 31/4/1
f 33/4/1 29/4/1 21/4/1
f 34/4/1 29/4/1 33/4/1
f 35/4/1 31/4/1 26/4/1
f 36/4/1 31/4/1 35/4/1
f 37/4/1 33/4/1 21/4/1
f 38/4/1 33/4/1 37/4/1
f 39/4/1 35/4/1 26/4/1
f 40/4/1 35/4/1 39/4/1
f 41/4/1 39/4/1 26/4/1
f 42/4/1 39/4/1 41/4/1
f 46/4/1 44/4/1 43/4/1
f 47/4/1 44/4/1 46/4/1
f 47/4/1 46/4/1 45/4/1
f 48/4/1 44/4/1 47/4/1
f 49/4/1 47/4/1 45/4/1
f 50/4/1 47/4/1 49/4/1
f 51/4/1 49/4/1 45/4/1
f 52/4/1 49/4/1 51/4/1
f 53/4/1 51/4/1 45/4/1
f 54/4/1 51/4/1 53/4/1
f 59/4/1 56/4/1 55/4/1
f 60/4/1 56/4/1 59/4/1
f 61/4/1 58/4/1 57/4/1
f 62/4/1 58/4/1 61/4/1
f 67/1/1 64/1/1 63/1/1
f 68/1/1 64/1/1 67/1/1
f 70/1/1 66/1/1 65/1/1
f 71/1/1 66/1/1 70/1/1
f 73/4/1 69/4/1 68/4/1
f 73/4/1 68/4/1 67/4/1
f 74/4/1 69/4/1 73/4/1
f 75/4/1 72/4/1 71/4/1
f 75/4/1 71/4/1 70/4/1
f 76/4/1 72/4/1 75/4/1
f 79/4/1 78/4/1 77/4/1
f 80/4/1 78/4/1 79/4/1
f 81/1/2 82/1/2 85/1/2
f 85/1/2 82/1/2 86/1/2
f 83/1/2 84/1/2 87/1/2
f 87/1/2 84/1/2 88/1/2
f 85/4/2 86/4/2 90/4/2
f 88/4/2 89/4/2 90/4/2
f 87/4/2 88/4/2 90/4/2
f 86/4/2 87/4/2 90/4/2
f 90/4/2 89/4/2 91/4/2
f 92/4/2 93/4/2 95/4/2
f 95/4/2 93/4/2 96/4/2
f 94/4/2 95/4/2 96/4/2
f 96/4/2 93/4/2 97/4/2
f 94/4/2 96/4/2 99/4/2
f 99/4/2 96/4/2 100/4/2
f 100/4/2 96/4/2 101/4/2
f 98/4/2 99/4/2 102/4/2
f 99/4/2 100/4/2 102/4/2
f 102/4/2 100/4/2 103/4/2
f 98/4/2 102/4/2 104/4/2
f 104/4/2 102/4/2 105/4/2
f 106/4/2 107/4/2 110/4/2
f 107/4/2 108/4/2 110/4/2
f 110/4/2 108/4/2 111/4/2
f 109/4/2 110/4/2 111/4/2
f 111/4/2 108/4/2 112/4/2
f 109/4/2 111/4/2 113/4/2
f 113/4/2 111/4/2 114/4/2
f 114/4/2 111/4/2 115/4/2
f 109/4/2 113/4/2 116/4/2
f 113/6/2 114/6/2 116/6/2
f 114/7/2 115/7/2 117/7/2
f 116/6/2 114/6/2 117/6/2
f 117/7/2 115/7/2 118/7/2
f 115/4/2 111/4/2 119/4/2
f 118/7/2 115/7/2 119/7/2
f 117/7/2 118/7/2 120/7/2
f 109/4/2 116/4/2 120/4/2
f 116/7/2 117/7/2 120/7/2
f 118/6/2 119/6/2 121/6/2
f 120/7/2 118/7/2 121/7/2
f 119/4/2 111/4/2 122/4/2
f 121/6/2 119/6/2 122/6/2
f 120/4/2 121/4/2 123/4/2
f 121/4/2 122/4/2 123/4/2
f 123/4/2 122/4/2 124/4/2
f 122/4/2 111/4/2 125/4/2
f 124/4/2 122/4/2 125/4/2
f 109/4/2 120/4/2 127/4/2
f 120/4/2 123/4/2 127/4/2
f 127/4/2 123/4/2 128/4/2
f 124/4/2 125/4/2 129/4/2
f 125/4/2 126/4/2 129/4/2
f 129/4/2 126/4/2 130/4/2
f 109/4/2 127/4/2 131/4/2
f 131/4/2 127/4/2 132/4/2
f 124/4/2 129/4/2 133/4/2
f 133/4/2 129/4/2 134/4/2
f 109/4/2 131/4/2 135/4/2
f 135/4/2 131/4/2 136/4/2
f 124/4/2 133/4/2 137/4/2
f 137/4/2 133/4/2 138/4/2
f 124/4/2 137/4/2 139/4/2
f 139/4/2 137/4/2 140/4/2
f 141/1/2 142/1/2 145/1/2
f 145/1/2 142/1/2 146/1/2
f 146/1/2 142/1/2 147/1/2
f 143/1/2 144/1/2 148/1/2
f 148/1/2 144/1/2 149/1/2
f 150/4/2 151/4/2 153/4/2
f 153/4/2 151/4/2 154/4/2
f 154/4/2 151/4/2 155/4/2
f 152/4/2 153/4/2 156/4/2
f 153/4/2 154/4/2 156/4/2
f 156/4/2 154/4/2 157/4/2
f 152/4/2 156/4/2 158/4/2
f 158/4/2 156/4/2 159/4/2
f 152/4/2 158/4/2 160/4/2
f 160/4/2 158/4/2 161/4/2
f 164/4/3 163/4/3 162/4/3
f 165/4/3 163/4/3 164/4/3
f 168/4/3 167/4/3 166/4/3
f 169/4/3 167/4/3 168/4/3
f 172/4/3 171/4/3 170/4/3
f 173/4/3 171/4/3 172/4/3
f 176/1/3 175/1/3 174/1/3
f 177/1/3 176/1/3 174/1/3
f 178/1/3 176/1/3 177/1/3
f 181/1/3 180/1/3 179/1/3
f 182/1/3 181/1/3 179/1/3
f 183/1/3 181/1/3 182/1/3
f 186/4/3 185/4/3 184/4/3
f 187/4/3 185/4/3 186/4/3
f 190/4/3 189/4/3 188/4/3
f 191/4/3 189/4/3 190/4/3
f 194/4/3 193/4/3 192/4/3
f 195/4/3 193/4/3 194/4/3
f 196/4/3 193/4/3 195/4/3
f 199/4/3 198/4/3 197/4/3
f 200/4/3 198/4/3 199/4/3
f 201/4/3 198/4/3 200/4/3
f 204/4/3 203/4/3 202/4/3
f 205/4/3 203/4/3 204/4/3
f 208/1/3 207/1/3 206/1/3
f 209/1/3 207/1/3 208/1/3
f 212/1/3 211/1/3 210/1/3
f 213/1/3 211/1/3 212/1/3
f 216/4/3 215/4/3 214/4/3
f 217/4/3 215/4/3 216/4/3
f 218/4/4 219/4/4 220/4/4
f 220/4/4 219/4/4 221/4/4
f 222/4/4 223/4/4 224/4/4
f 224/4/4 223/4/4 225/4/4
f 226/4/4 227/4/4 228/4/4
f 228/4/4 227/4/4 229/4/4
f 230/4/4 231/4/4 232/4/4
f 232/4/4 231/4/4 233/4/4
f 234/4/4 235/4/4 236/4/4
f 236/4/4 235/4/4 237/4/4
f 238/4/4 239/4/4 240/4/4
f 240/4/4 239/4/4 241/4/4
f 242/1/4 243/1/4 246/1/4
f 246/1/4 243/1/4 247/1/4
f 244/4/4 245/4/4 250/4/4
f 250/4/4 245/4/4 251/4/4
f 248/1/4 249/1/4 252/1/4
f 252/1/4 249/1/4 253/1/4
f 254/4/4 255/4/4 256/4/4
f 256/4/4 255/4/4 257/4/4
f 258/4/4 259/4/4 260/4/4
f 260/4/4 259/4/4 261/4/4
f 262/4/4 263/4/4 264/4/4
f 264/4/4 263/4/4 265/4/4
f 266/4/4 267/4/4 268/4/4
f 268/4/4 267/4/4 269/4/4
f 270/4/4 271/4/4 272/4/4
f 272/4/4 271/4/4 273/4/4
f 273/4/4 271/4/4 274/4/4
f 274/4/4 271/4/4 275/4/4
f 276/1/4 277/1/4 278/1/4
f 278/1/4 277/1/4 279/1/4
f 280/1/4 281/1/4 284/1/4
f 284/1/4 281/1/4 285/1/4
f 282/4/4 283/4/4 286/4/4
f 286/4/4 283/4/4 287/4/4
f 288/4/4 289/4/4 290/4/4
f 290/4/4 289/4/4 291/4/4
f 291/4/4 289/4/4 292/4/4
f 293/4/4 294/4/4 297/4/4
f 297/4/4 294/4/4 298/4/4
f 295/4/4 296/4/4 299/4/4
f 299/4/4 296/4/4 300/4/4
f 301/4/4 302/4/4 303/4/4
f 303/4/4 302/4/4 304/4/4
f 305/4/4 306/4/4 307/4/4
f 307/4/4 306/4/4 308/4/4
f 309/4/4 310/4/4 312/4/4
f 311/4/4 312/4/4 313/4/4
f 312/4/4 310/4/4 314/4/4
f 313/4/4 312/4/4 314/4/4
f 319/1/5 316/1/5 315/1/5
f 320/1/5 316/1/5 319/1/5
f 321/1/5 318/1/5 317/1/5
f 322/1/5 318/1/5 321/1/5
f 327/1/5 324/1/5 323/1/5
f 328/1/5 324/1/5 327/1/5
f 329/1/5 326/1/5 325/1/5
f 330/1/5 326/1/5 329/1/5
f 333/4/5 332/4/5 331/4/5
f 334/4/5 332/4/5 333/4/5
f 335/4/5 332/4/5 334/4/5
f 336/4/5 332/4/5 335/4/5
f 341/4/5 338/4/5 337/4/5
f 344/4/5 340/4/5 339/4/5
f 346/4/5 344/4/5 343/4/5
f 347/4/5 342/4/5 341/4/5
f 347/4/5 341/4/5 337/4/5
f 348/4/5 342/4/5 347/4/5
f 349/4/5 346/4/5 345/4/5
f 350/4/5 344/4/5 346/4/5
f 350/4/5 346/4/5 349/4/5
f 351/4/5 340/4/5 344/4/5
f 351/4/5 344/4/5 350/4/5
f 352/4/5 347/4/5 337/4/5
f 355/4/5 340/4/5 351/4/5
f 356/4/5 353/4/5 352/4/5
f 356/4/5 352/4/5 337/4/5
f 357/4/5 353/4/5 356/4/5
f 359/4/5 355/4/5 354/4/5
f 360/4/5 340/4/5 355/4/5
f 360/4/5 355/4/5 359/4/5
f 361/4/5 359/4/5 358/4/5
f 362/4/5 359/4/5 361/4/5
f 365/4/5 364/4/5 363/4/5
f 366/4/5 364/4/5 365/4/5
f 367/4/5 365/4/5 363/4/5
f 369/4/5 367/4/5 363/4/5
f 369/4/5 368/4/5 367/4/5
f 370/4/5 368/4/5 369/4/5
f 371/4/5 368/4/5 370/4/5
f 372/4/5 370/4/5 369/4/5
f 373/4/5 370/4/5 372/4/5
f 376/4/5 375/4/5 374/4/5
f 377/4/5 375/4/5 376/4/5
f 382/4/5 379/4/5 378/4/5
f 383/4/5 379/4/5 382/4/5
f 384/4/5 381/4/5 380/4/5
f 385/4/5 381/4/5 384/4/5
f 386/1/6 387/1/6 390/1/6
f 390/1/6 387/1/6 391/1/6
f 388/1/6 389/1/6 392/1/6
f 392/1/6 389/1/6 393/1/6
f 396/4/6 397/4/6 398/4/6
f 394/4/6 395/4/6 400/4/6
f 400/4/6 395/4/6 401/4/6
f 398/4/6 399/4/6 402/4/6
f 396/4/6 398/4/6 402/4/6
f 402/4/6 399/4/6 403/4/6
f 404/4/6 405/4/6 406/4/6
f 406/4/6 405/4/6 407/4/6
f 408/4/6 409/4/6 410/4/6
f 410/4/6 409/4/6 411/4/6
f 412/4/6 413/4/6 414/4/6
f 414/4/6 413/4/6 415/4/6
f 416/4/6 417/4/6 418/4/6
f 418/4/6 417/4/6 419/4/6
f 420/4/6 421/4/6 422/4/6
f 422/4/6 421/4/6 423/4/6
f 424/4/6 425/4/6 426/4/6
f 426/4/6 425/4/6 427/4/6
f 428/4/6 429/4/6 432/4/6
f 430/4/6 431/4/6 433/4/6
f 428/4/6 432/4/6 434/4/6
f 432/4/6 433/4/6 434/4/6
f 434/4/6 433/4/6 435/4/6
f 435/4/6 433/4/6 436/4/6
f 433/4/6 431/4/6 437/4/6
f 436/4/6 433/4/6 437/4/6
f 435/4/6 436/4/6 438/4/6
f 438/4/6 436/4/6 439/4/6
f 440/4/6 441/4/6 442/4/6
f 442/4/6 441/4/6 443/4/6
f 444/4/6 445/4/6 446/4/6
f 446/4/6 445/4/6 447/4/6
f 448/4/6 449/4/6 450/4/6
f 450/4/6 449/4/6 451/4/6
f 452/4/6 453/4/6 454/4/6
f 454/4/6 453/4/6 455/4/6
f 456/4/6 457/4/6 458/4/6
f 458/4/6 457/4/6 459/4/6
f 460/4/6 461/4/6 462/4/6
f 462/4/6 461/4/6 463/4/6
f 464/4/6 465/4/6 466/4/6
f 466/4/6 465/4/6 467/4/6
